<svg class="main-svg" xmlns="http://www.w3.org/2000/svg" xmlns:xlink="http://www.w3.org/1999/xlink" width="1200" height="700" style="" viewBox="0 0 1200 700"><rect x="0" y="0" width="1200" height="700" style="fill: rgb(255, 255, 255); fill-opacity: 1;"/><defs id="defs-0b33f2"><g class="clips"><clipPath id="clip0b33f2xyplot" class="plotclip"><rect width="468" height="422"/></clipPath><clipPath id="clip0b33f2x2y2plot" class="plotclip"><rect width="467.99999999999994" height="422"/></clipPath><clipPath class="axesclip" id="clip0b33f2x"><rect x="80" y="0" width="468" height="700"/></clipPath><clipPath class="axesclip" id="clip0b33f2y"><rect x="0" y="100" width="1200" height="422"/></clipPath><clipPath class="axesclip" id="clip0b33f2xy"><rect x="80" y="100" width="468" height="422"/></clipPath><clipPath class="axesclip" id="clip0b33f2y2"><rect x="0" y="100" width="1200" height="422"/></clipPath><clipPath class="axesclip" id="clip0b33f2xy2"><rect x="80" y="100" width="468" height="422"/></clipPath><clipPath class="axesclip" id="clip0b33f2x2"><rect x="652" y="0" width="467.99999999999994" height="700"/></clipPath><clipPath class="axesclip" id="clip0b33f2x2y"><rect x="652" y="100" width="467.99999999999994" height="422"/></clipPath><clipPath class="axesclip" id="clip0b33f2x2y2"><rect x="652" y="100" width="467.99999999999994" height="422"/></clipPath></g><g class="gradients"/><g class="patterns"/></defs><g class="bglayer"><rect class="bg" x="80" y="100" width="468" height="422" style="fill: rgb(229, 236, 246); fill-opacity: 1; stroke-width: 0;"/><rect class="bg" x="652" y="100" width="467.99999999999994" height="422" style="fill: rgb(229, 236, 246); fill-opacity: 1; stroke-width: 0;"/></g><g class="layer-below"><g class="imagelayer"/><g class="shapelayer"/></g><g class="cartesianlayer"><g class="subplot xy"><g class="layer-subplot"><g class="shapelayer"/><g class="imagelayer"/></g><g class="minor-gridlayer"><g class="x"/><g class="y"/></g><g class="gridlayer"><g class="x"><path class="xgrid crisp" transform="translate(173.6,0)" d="M0,100v422" style="stroke: rgb(255, 255, 255); stroke-opacity: 1; stroke-width: 1px;"/><path class="xgrid crisp" transform="translate(267.2,0)" d="M0,100v422" style="stroke: rgb(255, 255, 255); stroke-opacity: 1; stroke-width: 1px;"/><path class="xgrid crisp" transform="translate(360.8,0)" d="M0,100v422" style="stroke: rgb(255, 255, 255); stroke-opacity: 1; stroke-width: 1px;"/><path class="xgrid crisp" transform="translate(454.4,0)" d="M0,100v422" style="stroke: rgb(255, 255, 255); stroke-opacity: 1; stroke-width: 1px;"/></g><g class="y"><path class="ygrid crisp" transform="translate(0,441.82)" d="M80,0h468" style="stroke: rgb(255, 255, 255); stroke-opacity: 1; stroke-width: 1px;"/><path class="ygrid crisp" transform="translate(0,361.64)" d="M80,0h468" style="stroke: rgb(255, 255, 255); stroke-opacity: 1; stroke-width: 1px;"/><path class="ygrid crisp" transform="translate(0,281.46000000000004)" d="M80,0h468" style="stroke: rgb(255, 255, 255); stroke-opacity: 1; stroke-width: 1px;"/><path class="ygrid crisp" transform="translate(0,201.28)" d="M80,0h468" style="stroke: rgb(255, 255, 255); stroke-opacity: 1; stroke-width: 1px;"/><path class="ygrid crisp" transform="translate(0,121.1)" d="M80,0h468" style="stroke: rgb(255, 255, 255); stroke-opacity: 1; stroke-width: 1px;"/></g></g><g class="zerolinelayer"><path class="xzl zl crisp" transform="translate(80,0)" d="M0,100v422" style="stroke: rgb(255, 255, 255); stroke-opacity: 1; stroke-width: 2px;"/><path class="yzl zl crisp" transform="translate(0,522)" d="M80,0h468" style="stroke: rgb(255, 255, 255); stroke-opacity: 1; stroke-width: 2px;"/></g><g class="layer-between"><g class="shapelayer"/><g class="imagelayer"/></g><path class="xlines-below"/><path class="ylines-below"/><g class="overlines-below"/><g class="xaxislayer-below"/><g class="yaxislayer-below"/><g class="overaxes-below"/><g class="overplot"><g class="xy" transform="translate(80,100)" clip-path="url(#clip0b33f2xyplot)"><g class="scatterlayer mlayer"><g class="trace scatter trace421f26" style="stroke-miterlimit: 2;"><g class="fills"><g><path class="js-fill" d="M468,422L0,422L0,258.9L4.68,260.15L9.36,261.39L14.04,261.39L18.72,261.39L23.4,262.64L28.08,262.64L32.76,262.64L37.44,263.88L42.12,263.88L46.8,263.88L51.48,265.13L56.16,265.13L60.84,265.13L65.52,265.13L70.2,265.13L74.88,265.13L79.56,265.13L84.24,266.37L88.92,266.37L93.6,266.37L98.28,266.37L102.96,266.37L107.64,267.62L112.32,268.86L117,268.86L121.68,268.86L126.36,268.86L131.04,268.86L135.72,268.86L140.4,268.86L145.08,268.86L149.76,268.86L154.44,268.86L159.12,270.11L163.8,270.11L168.48,270.11L173.16,270.11L177.84,272.6L182.52,272.6L187.2,272.6L191.88,272.6L196.56,272.6L201.24,273.84L205.92,275.09L210.6,275.09L215.28,275.09L219.96,275.09L224.64,275.09L229.32,276.33L234,276.33L238.68,281.31L243.36,283.8L248.04,285.05L252.72,286.29L257.4,287.54L262.08,291.27L266.76,293.76L271.44,297.5L276.12,299.99L280.8,301.23L285.48,304.97L290.16,307.46L294.84,311.19L299.52,316.17L304.2,318.66L308.88,321.15L313.56,326.13L318.24,332.36L322.92,333.6L327.6,336.09L332.28,342.32L336.96,344.81L341.64,348.54L346.32,351.03L351,364.73L355.68,369.71L360.36,373.44L365.04,377.18L369.72,383.4L374.4,383.4L379.08,384.65L383.76,388.38L388.44,389.63L393.12,390.87L397.8,393.36L402.48,393.36L407.16,397.1L411.84,397.1L416.52,400.83L421.2,405.81L425.88,407.06L430.56,407.06L435.24,407.06L439.92,408.3L444.6,410.79L449.28,412.04L453.96,412.04L458.64,412.04L463.32,413.28L468,414.53" style="fill: rgb(0, 0, 255); fill-opacity: 0.7; stroke-width: 0;"/></g><g><path class="js-fill" d="M0,234L4.68,235.25L9.36,238.98L14.04,240.23L18.72,240.23L23.4,241.47L28.08,241.47L32.76,241.47L37.44,242.72L42.12,242.72L46.8,242.72L51.48,243.96L56.16,243.96L60.84,243.96L65.52,243.96L70.2,243.96L74.88,243.96L79.56,243.96L84.24,245.21L88.92,245.21L93.6,245.21L98.28,245.21L102.96,245.21L107.64,246.45L112.32,247.7L117,247.7L121.68,247.7L126.36,247.7L131.04,247.7L135.72,247.7L140.4,247.7L145.08,247.7L149.76,247.7L154.44,247.7L159.12,248.94L163.8,248.94L168.48,248.94L173.16,248.94L177.84,251.43L182.52,252.68L187.2,252.68L191.88,252.68L196.56,252.68L201.24,253.92L205.92,255.17L210.6,255.17L215.28,255.17L219.96,255.17L224.64,255.17L229.32,256.41L234,256.41L238.68,261.39L243.36,266.37L248.04,267.62L252.72,268.86L257.4,271.35L262.08,276.33L266.76,278.82L271.44,282.56L276.12,287.54L280.8,288.78L285.48,293.76L290.16,297.5L294.84,301.23L299.52,306.21L304.2,309.95L308.88,312.44L313.56,318.66L318.24,327.38L322.92,328.62L327.6,331.11L332.28,337.34L336.96,339.83L341.64,344.81L346.32,348.54L351,362.24L355.68,367.22L360.36,370.95L365.04,374.69L369.72,380.91L374.4,380.91L379.08,383.4L383.76,387.14L388.44,388.38L393.12,389.63L397.8,392.12L402.48,393.36L407.16,397.1L411.84,397.1L416.52,400.83L421.2,405.81L425.88,407.06L430.56,407.06L435.24,407.06L439.92,408.3L444.6,410.79L449.28,412.04L453.96,412.04L458.64,412.04L463.32,413.28L468,414.53L468,414.53L463.32,413.28L458.64,412.04L453.96,412.04L449.28,412.04L444.6,410.79L439.92,408.3L435.24,407.06L430.56,407.06L425.88,407.06L421.2,405.81L416.52,400.83L411.84,397.1L407.16,397.1L402.48,393.36L397.8,393.36L393.12,390.87L388.44,389.63L383.76,388.38L379.08,384.65L374.4,383.4L369.72,383.4L365.04,377.18L360.36,373.44L355.68,369.71L351,364.73L346.32,351.03L341.64,348.54L336.96,344.81L332.28,342.32L327.6,336.09L322.92,333.6L318.24,332.36L313.56,326.13L308.88,321.15L304.2,318.66L299.52,316.17L294.84,311.19L290.16,307.46L285.48,304.97L280.8,301.23L276.12,299.99L271.44,297.5L266.76,293.76L262.08,291.27L257.4,287.54L252.72,286.29L248.04,285.05L243.36,283.8L238.68,281.31L234,276.33L229.32,276.33L224.64,275.09L219.96,275.09L215.28,275.09L210.6,275.09L205.92,275.09L201.24,273.84L196.56,272.6L191.88,272.6L187.2,272.6L182.52,272.6L177.84,272.6L173.16,270.11L168.48,270.11L163.8,270.11L159.12,270.11L154.44,268.86L149.76,268.86L145.08,268.86L140.4,268.86L135.72,268.86L131.04,268.86L126.36,268.86L121.68,268.86L117,268.86L112.32,268.86L107.64,267.62L102.96,266.37L98.28,266.37L93.6,266.37L88.92,266.37L84.24,266.37L79.56,265.13L74.88,265.13L70.2,265.13L65.52,265.13L60.84,265.13L56.16,265.13L51.48,265.13L46.8,263.88L42.12,263.88L37.44,263.88L32.76,262.64L28.08,262.64L23.4,262.64L18.72,261.39L14.04,261.39L9.36,261.39L4.68,260.15L0,258.9Z" style="fill: rgb(128, 0, 128); fill-opacity: 0.7; stroke-width: 0;"/></g></g><g class="errorbars"/><g class="lines"/><g class="points"/><g class="text"/></g><g class="trace scatter trace5291f4" style="stroke-miterlimit: 2;"><g class="fills"><g><path class="js-fill" d="M0,234L4.68,234L9.36,234L14.04,234L18.72,234L23.4,234L28.08,234L32.76,234L37.44,234L42.12,234L46.8,234L51.48,234L56.16,234L60.84,234L65.52,234L70.2,234L74.88,234L79.56,234L84.24,234L88.92,234L93.6,234L98.28,234L102.96,234L107.64,234L112.32,234L117,234L121.68,234L126.36,234L131.04,234L135.72,234L140.4,234L145.08,234L149.76,234L154.44,234L159.12,234L163.8,234L168.48,234L173.16,234L177.84,234L182.52,234L187.2,234L191.88,234L196.56,234L201.24,234L205.92,234L210.6,234L215.28,234L219.96,234L224.64,234L229.32,234L234,234L238.68,234L243.36,234L248.04,234L252.72,234L257.4,234L262.08,234L266.76,234L271.44,234L276.12,234L280.8,234L285.48,234L290.16,234L294.84,234L299.52,234L304.2,234L308.88,234L313.56,234L318.24,234L322.92,234L327.6,234L332.28,234L336.96,234L341.64,234L346.32,234L351,234L355.68,234L360.36,234L365.04,234L369.72,234L374.4,234L379.08,234L383.76,234L388.44,234L393.12,234L397.8,234L402.48,234L407.16,234L411.84,234L416.52,234L421.2,234L425.88,234L430.56,234L435.24,234L439.92,234L444.6,234L449.28,234L453.96,234L458.64,234L463.32,234L468,234L468,414.53L463.32,413.28L458.64,412.04L453.96,412.04L449.28,412.04L444.6,410.79L439.92,408.3L435.24,407.06L430.56,407.06L425.88,407.06L421.2,405.81L416.52,400.83L411.84,397.1L407.16,397.1L402.48,393.36L397.8,392.12L393.12,389.63L388.44,388.38L383.76,387.14L379.08,383.4L374.4,380.91L369.72,380.91L365.04,374.69L360.36,370.95L355.68,367.22L351,362.24L346.32,348.54L341.64,344.81L336.96,339.83L332.28,337.34L327.6,331.11L322.92,328.62L318.24,327.38L313.56,318.66L308.88,312.44L304.2,309.95L299.52,306.21L294.84,301.23L290.16,297.5L285.48,293.76L280.8,288.78L276.12,287.54L271.44,282.56L266.76,278.82L262.08,276.33L257.4,271.35L252.72,268.86L248.04,267.62L243.36,266.37L238.68,261.39L234,256.41L229.32,256.41L224.64,255.17L219.96,255.17L215.28,255.17L210.6,255.17L205.92,255.17L201.24,253.92L196.56,252.68L191.88,252.68L187.2,252.68L182.52,252.68L177.84,251.43L173.16,248.94L168.48,248.94L163.8,248.94L159.12,248.94L154.44,247.7L149.76,247.7L145.08,247.7L140.4,247.7L135.72,247.7L131.04,247.7L126.36,247.7L121.68,247.7L117,247.7L112.32,247.7L107.64,246.45L102.96,245.21L98.28,245.21L93.6,245.21L88.92,245.21L84.24,245.21L79.56,243.96L74.88,243.96L70.2,243.96L65.52,243.96L60.84,243.96L56.16,243.96L51.48,243.96L46.8,242.72L42.12,242.72L37.44,242.72L32.76,241.47L28.08,241.47L23.4,241.47L18.72,240.23L14.04,240.23L9.36,238.98L4.68,235.25L0,234Z" style="fill: rgb(255, 165, 0); fill-opacity: 0.5; stroke-width: 0;"/></g></g><g class="errorbars"/><g class="lines"/><g class="points"/><g class="text"/></g><g class="trace scatter trace8acbab" style="stroke-miterlimit: 2;"><g class="fills"><g><path class="js-fill" d="M0,234L4.68,234L9.36,234L14.04,232.76L18.72,231.51L23.4,230.27L28.08,230.27L32.76,230.27L37.44,230.27L42.12,230.27L46.8,230.27L51.48,230.27L56.16,230.27L60.84,227.78L65.52,227.78L70.2,227.78L74.88,227.78L79.56,227.78L84.24,227.78L88.92,227.78L93.6,226.53L98.28,224.04L102.96,222.8L107.64,222.8L112.32,222.8L117,222.8L121.68,222.8L126.36,222.8L131.04,222.8L135.72,222.8L140.4,221.55L145.08,221.55L149.76,221.55L154.44,220.3L159.12,220.3L163.8,220.3L168.48,217.81L173.16,217.81L177.84,216.57L182.52,214.08L187.2,214.08L191.88,212.83L196.56,212.83L201.24,212.83L205.92,210.34L210.6,209.1L215.28,209.1L219.96,209.1L224.64,209.1L229.32,209.1L234,209.1L238.68,205.36L243.36,200.38L248.04,195.4L252.72,191.67L257.4,189.18L262.08,189.18L266.76,187.93L271.44,185.44L276.12,184.2L280.8,170.5L285.48,165.52L290.16,163.03L294.84,158.05L299.52,154.32L304.2,151.83L308.88,145.6L313.56,141.87L318.24,134.4L322.92,131.91L327.6,124.44L332.28,119.46L336.96,118.21L341.64,116.97L346.32,110.74L351,103.27L355.68,94.56L360.36,92.07L365.04,88.33L369.72,88.33L374.4,80.86L379.08,78.37L383.76,75.88L388.44,72.15L393.12,68.41L397.8,63.43L402.48,59.7L407.16,57.21L411.84,55.96L416.52,52.23L421.2,52.23L425.88,46L430.56,41.02L435.24,39.78L439.92,36.04L444.6,36.04L449.28,36.04L453.96,36.04L458.64,34.8L463.32,33.55L468,29.82L468,234L463.32,234L458.64,234L453.96,234L449.28,234L444.6,234L439.92,234L435.24,234L430.56,234L425.88,234L421.2,234L416.52,234L411.84,234L407.16,234L402.48,234L397.8,234L393.12,234L388.44,234L383.76,234L379.08,234L374.4,234L369.72,234L365.04,234L360.36,234L355.68,234L351,234L346.32,234L341.64,234L336.96,234L332.28,234L327.6,234L322.92,234L318.24,234L313.56,234L308.88,234L304.2,234L299.52,234L294.84,234L290.16,234L285.48,234L280.8,234L276.12,234L271.44,234L266.76,234L262.08,234L257.4,234L252.72,234L248.04,234L243.36,234L238.68,234L234,234L229.32,234L224.64,234L219.96,234L215.28,234L210.6,234L205.92,234L201.24,234L196.56,234L191.88,234L187.2,234L182.52,234L177.84,234L173.16,234L168.48,234L163.8,234L159.12,234L154.44,234L149.76,234L145.08,234L140.4,234L135.72,234L131.04,234L126.36,234L121.68,234L117,234L112.32,234L107.64,234L102.96,234L98.28,234L93.6,234L88.92,234L84.24,234L79.56,234L74.88,234L70.2,234L65.52,234L60.84,234L56.16,234L51.48,234L46.8,234L42.12,234L37.44,234L32.76,234L28.08,234L23.4,234L18.72,234L14.04,234L9.36,234L4.68,234L0,234Z" style="fill: rgb(0, 255, 0); fill-opacity: 0.5; stroke-width: 0;"/></g></g><g class="errorbars"/><g class="lines"/><g class="points"/><g class="text"/></g><g class="trace scatter tracee64c93" style="stroke-miterlimit: 2;"><g class="fills"><g><path class="js-fill" d="M0,209.1L4.68,209.1L9.36,209.1L14.04,209.1L18.72,207.85L23.4,207.85L28.08,207.85L32.76,207.85L37.44,207.85L42.12,207.85L46.8,207.85L51.48,207.85L56.16,207.85L60.84,205.36L65.52,205.36L70.2,205.36L74.88,205.36L79.56,205.36L84.24,205.36L88.92,205.36L93.6,205.36L98.28,202.87L102.96,201.63L107.64,201.63L112.32,201.63L117,201.63L121.68,201.63L126.36,201.63L131.04,201.63L135.72,201.63L140.4,200.38L145.08,200.38L149.76,200.38L154.44,199.14L159.12,199.14L163.8,199.14L168.48,197.89L173.16,197.89L177.84,196.65L182.52,194.16L187.2,194.16L191.88,194.16L196.56,194.16L201.24,194.16L205.92,191.67L210.6,190.42L215.28,190.42L219.96,190.42L224.64,190.42L229.32,190.42L234,190.42L238.68,187.93L243.36,184.2L248.04,182.95L252.72,180.46L257.4,179.22L262.08,179.22L266.76,177.97L271.44,175.48L276.12,174.24L280.8,163.03L285.48,159.3L290.16,156.81L294.84,151.83L299.52,149.34L304.2,146.85L308.88,140.62L313.56,136.89L318.24,130.66L322.92,128.17L327.6,120.7L332.28,116.97L336.96,115.72L341.64,114.48L346.32,108.25L351,102.03L355.68,93.31L360.36,90.82L365.04,87.09L369.72,87.09L374.4,79.62L379.08,77.13L383.76,75.88L388.44,72.15L393.12,68.41L397.8,63.43L402.48,59.7L407.16,57.21L411.84,55.96L416.52,52.23L421.2,52.23L425.88,46L430.56,41.02L435.24,39.78L439.92,36.04L444.6,36.04L449.28,36.04L453.96,36.04L458.64,34.8L463.32,33.55L468,29.82L468,29.82L463.32,33.55L458.64,34.8L453.96,36.04L449.28,36.04L444.6,36.04L439.92,36.04L435.24,39.78L430.56,41.02L425.88,46L421.2,52.23L416.52,52.23L411.84,55.96L407.16,57.21L402.48,59.7L397.8,63.43L393.12,68.41L388.44,72.15L383.76,75.88L379.08,78.37L374.4,80.86L369.72,88.33L365.04,88.33L360.36,92.07L355.68,94.56L351,103.27L346.32,110.74L341.64,116.97L336.96,118.21L332.28,119.46L327.6,124.44L322.92,131.91L318.24,134.4L313.56,141.87L308.88,145.6L304.2,151.83L299.52,154.32L294.84,158.05L290.16,163.03L285.48,165.52L280.8,170.5L276.12,184.2L271.44,185.44L266.76,187.93L262.08,189.18L257.4,189.18L252.72,191.67L248.04,195.4L243.36,200.38L238.68,205.36L234,209.1L229.32,209.1L224.64,209.1L219.96,209.1L215.28,209.1L210.6,209.1L205.92,210.34L201.24,212.83L196.56,212.83L191.88,212.83L187.2,214.08L182.52,214.08L177.84,216.57L173.16,217.81L168.48,217.81L163.8,220.3L159.12,220.3L154.44,220.3L149.76,221.55L145.08,221.55L140.4,221.55L135.72,222.8L131.04,222.8L126.36,222.8L121.68,222.8L117,222.8L112.32,222.8L107.64,222.8L102.96,222.8L98.28,224.04L93.6,226.53L88.92,227.78L84.24,227.78L79.56,227.78L74.88,227.78L70.2,227.78L65.52,227.78L60.84,227.78L56.16,230.27L51.48,230.27L46.8,230.27L42.12,230.27L37.44,230.27L32.76,230.27L28.08,230.27L23.4,230.27L18.72,231.51L14.04,232.76L9.36,234L4.68,234L0,234Z" style="fill: rgb(255, 0, 0); fill-opacity: 0.7; stroke-width: 0;"/></g></g><g class="errorbars"/><g class="lines"/><g class="points"/><g class="text"/></g><g class="trace scatter trace26928d" style="stroke-miterlimit: 2;"><g class="fills"><g><path class="js-fill" d="M0,21.1L4.68,21.1L9.36,21.1L14.04,21.1L18.72,21.1L23.4,21.1L28.08,21.1L32.76,21.1L37.44,21.1L42.12,21.1L46.8,21.1L51.48,21.1L56.16,21.1L60.84,21.1L65.52,21.1L70.2,21.1L74.88,21.1L79.56,21.1L84.24,21.1L88.92,21.1L93.6,21.1L98.28,21.1L102.96,21.1L107.64,21.1L112.32,21.1L117,21.1L121.68,21.1L126.36,21.1L131.04,21.1L135.72,21.1L140.4,21.1L145.08,21.1L149.76,21.1L154.44,21.1L159.12,21.1L163.8,21.1L168.48,21.1L173.16,21.1L177.84,21.1L182.52,21.1L187.2,21.1L191.88,21.1L196.56,21.1L201.24,21.1L205.92,21.1L210.6,21.1L215.28,21.1L219.96,21.1L224.64,21.1L229.32,21.1L234,21.1L238.68,21.1L243.36,21.1L248.04,21.1L252.72,21.1L257.4,21.1L262.08,21.1L266.76,21.1L271.44,21.1L276.12,21.1L280.8,21.1L285.48,21.1L290.16,21.1L294.84,21.1L299.52,21.1L304.2,21.1L308.88,21.1L313.56,21.1L318.24,21.1L322.92,21.1L327.6,21.1L332.28,21.1L336.96,21.1L341.64,21.1L346.32,21.1L351,21.1L355.68,21.1L360.36,21.1L365.04,21.1L369.72,21.1L374.4,21.1L379.08,21.1L383.76,21.1L388.44,21.1L393.12,21.1L397.8,21.1L402.48,21.1L407.16,21.1L411.84,21.1L416.52,21.1L421.2,21.1L425.88,21.1L430.56,21.1L435.24,21.1L439.92,21.1L444.6,21.1L449.28,21.1L453.96,21.1L458.64,21.1L463.32,21.1L468,21.1L468,29.82L463.32,33.55L458.64,34.8L453.96,36.04L449.28,36.04L444.6,36.04L439.92,36.04L435.24,39.78L430.56,41.02L425.88,46L421.2,52.23L416.52,52.23L411.84,55.96L407.16,57.21L402.48,59.7L397.8,63.43L393.12,68.41L388.44,72.15L383.76,75.88L379.08,77.13L374.4,79.62L369.72,87.09L365.04,87.09L360.36,90.82L355.68,93.31L351,102.03L346.32,108.25L341.64,114.48L336.96,115.72L332.28,116.97L327.6,120.7L322.92,128.17L318.24,130.66L313.56,136.89L308.88,140.62L304.2,146.85L299.52,149.34L294.84,151.83L290.16,156.81L285.48,159.3L280.8,163.03L276.12,174.24L271.44,175.48L266.76,177.97L262.08,179.22L257.4,179.22L252.72,180.46L248.04,182.95L243.36,184.2L238.68,187.93L234,190.42L229.32,190.42L224.64,190.42L219.96,190.42L215.28,190.42L210.6,190.42L205.92,191.67L201.24,194.16L196.56,194.16L191.88,194.16L187.2,194.16L182.52,194.16L177.84,196.65L173.16,197.89L168.48,197.89L163.8,199.14L159.12,199.14L154.44,199.14L149.76,200.38L145.08,200.38L140.4,200.38L135.72,201.63L131.04,201.63L126.36,201.63L121.68,201.63L117,201.63L112.32,201.63L107.64,201.63L102.96,201.63L98.28,202.87L93.6,205.36L88.92,205.36L84.24,205.36L79.56,205.36L74.88,205.36L70.2,205.36L65.52,205.36L60.84,205.36L56.16,207.85L51.48,207.85L46.8,207.85L42.12,207.85L37.44,207.85L32.76,207.85L28.08,207.85L23.4,207.85L18.72,207.85L14.04,209.1L9.36,209.1L4.68,209.1L0,209.1Z" style="fill: rgb(0, 128, 0); fill-opacity: 0.7; stroke-width: 0;"/></g></g><g class="errorbars"/><g class="lines"/><g class="points"/><g class="text"/></g><g class="trace scatter trace8d209e" style="stroke-miterlimit: 2;"><g class="fills"/><g class="errorbars"/><g class="lines"/><g class="points"/><g class="text"/></g></g></g></g><path class="xlines-above crisp" d="M0,0" style="fill: none;"/><path class="ylines-above crisp" d="M0,0" style="fill: none;"/><g class="overlines-above"/><g class="xaxislayer-above"><g class="xtick"><text text-anchor="middle" x="0" y="535" transform="translate(80,0)" style="font-family: 'Open Sans', verdana, arial, sans-serif; font-size: 12px; fill: rgb(42, 63, 95); fill-opacity: 1; white-space: pre; opacity: 1;">0</text></g><g class="xtick"><text text-anchor="middle" x="0" y="535" style="font-family: 'Open Sans', verdana, arial, sans-serif; font-size: 12px; fill: rgb(42, 63, 95); fill-opacity: 1; white-space: pre; opacity: 1;" transform="translate(173.6,0)">0.2</text></g><g class="xtick"><text text-anchor="middle" x="0" y="535" style="font-family: 'Open Sans', verdana, arial, sans-serif; font-size: 12px; fill: rgb(42, 63, 95); fill-opacity: 1; white-space: pre; opacity: 1;" transform="translate(267.2,0)">0.4</text></g><g class="xtick"><text text-anchor="middle" x="0" y="535" style="font-family: 'Open Sans', verdana, arial, sans-serif; font-size: 12px; fill: rgb(42, 63, 95); fill-opacity: 1; white-space: pre; opacity: 1;" transform="translate(360.8,0)">0.6</text></g><g class="xtick"><text text-anchor="middle" x="0" y="535" style="font-family: 'Open Sans', verdana, arial, sans-serif; font-size: 12px; fill: rgb(42, 63, 95); fill-opacity: 1; white-space: pre; opacity: 1;" transform="translate(454.4,0)">0.8</text></g><g class="xtick"><text text-anchor="middle" x="0" y="535" style="font-family: 'Open Sans', verdana, arial, sans-serif; font-size: 12px; fill: rgb(42, 63, 95); fill-opacity: 1; white-space: pre; opacity: 1;" transform="translate(548,0)">1</text></g></g><g class="yaxislayer-above"><g class="ytick"><text text-anchor="end" x="79" y="4.199999999999999" transform="translate(0,522)" style="font-family: 'Open Sans', verdana, arial, sans-serif; font-size: 12px; fill: rgb(42, 63, 95); fill-opacity: 1; white-space: pre; opacity: 1;">0</text></g><g class="ytick"><text text-anchor="end" x="79" y="4.199999999999999" style="font-family: 'Open Sans', verdana, arial, sans-serif; font-size: 12px; fill: rgb(42, 63, 95); fill-opacity: 1; white-space: pre; opacity: 1;" transform="translate(0,441.82)">20</text></g><g class="ytick"><text text-anchor="end" x="79" y="4.199999999999999" style="font-family: 'Open Sans', verdana, arial, sans-serif; font-size: 12px; fill: rgb(42, 63, 95); fill-opacity: 1; white-space: pre; opacity: 1;" transform="translate(0,361.64)">40</text></g><g class="ytick"><text text-anchor="end" x="79" y="4.199999999999999" style="font-family: 'Open Sans', verdana, arial, sans-serif; font-size: 12px; fill: rgb(42, 63, 95); fill-opacity: 1; white-space: pre; opacity: 1;" transform="translate(0,281.46000000000004)">60</text></g><g class="ytick"><text text-anchor="end" x="79" y="4.199999999999999" style="font-family: 'Open Sans', verdana, arial, sans-serif; font-size: 12px; fill: rgb(42, 63, 95); fill-opacity: 1; white-space: pre; opacity: 1;" transform="translate(0,201.28)">80</text></g><g class="ytick"><text text-anchor="end" x="79" y="4.199999999999999" style="font-family: 'Open Sans', verdana, arial, sans-serif; font-size: 12px; fill: rgb(42, 63, 95); fill-opacity: 1; white-space: pre; opacity: 1;" transform="translate(0,121.1)">100</text></g></g><g class="overaxes-above"/></g><g class="subplot x2y2"><g class="layer-subplot"><g class="shapelayer"/><g class="imagelayer"/></g><g class="minor-gridlayer"><g class="x2"/><g class="y2"/></g><g class="gridlayer"><g class="x2"><path class="x2grid crisp" transform="translate(745.6,0)" d="M0,100v422" style="stroke: rgb(255, 255, 255); stroke-opacity: 1; stroke-width: 1px;"/><path class="x2grid crisp" transform="translate(839.2,0)" d="M0,100v422" style="stroke: rgb(255, 255, 255); stroke-opacity: 1; stroke-width: 1px;"/><path class="x2grid crisp" transform="translate(932.8,0)" d="M0,100v422" style="stroke: rgb(255, 255, 255); stroke-opacity: 1; stroke-width: 1px;"/><path class="x2grid crisp" transform="translate(1026.4,0)" d="M0,100v422" style="stroke: rgb(255, 255, 255); stroke-opacity: 1; stroke-width: 1px;"/></g><g class="y2"><path class="y2grid crisp" transform="translate(0,421.74)" d="M652,0h467.99999999999994" style="stroke: rgb(255, 255, 255); stroke-opacity: 1; stroke-width: 1px;"/><path class="y2grid crisp" transform="translate(0,342.59000000000003)" d="M652,0h467.99999999999994" style="stroke: rgb(255, 255, 255); stroke-opacity: 1; stroke-width: 1px;"/><path class="y2grid crisp" transform="translate(0,263.43)" d="M652,0h467.99999999999994" style="stroke: rgb(255, 255, 255); stroke-opacity: 1; stroke-width: 1px;"/><path class="y2grid crisp" transform="translate(0,184.28)" d="M652,0h467.99999999999994" style="stroke: rgb(255, 255, 255); stroke-opacity: 1; stroke-width: 1px;"/><path class="y2grid crisp" transform="translate(0,105.12)" d="M652,0h467.99999999999994" style="stroke: rgb(255, 255, 255); stroke-opacity: 1; stroke-width: 1px;"/></g></g><g class="zerolinelayer"><path class="x2zl zl crisp" transform="translate(652,0)" d="M0,100v422" style="stroke: rgb(255, 255, 255); stroke-opacity: 1; stroke-width: 2px;"/><path class="y2zl zl crisp" transform="translate(0,500.9)" d="M652,0h467.99999999999994" style="stroke: rgb(255, 255, 255); stroke-opacity: 1; stroke-width: 2px;"/></g><g class="layer-between"><g class="shapelayer"/><g class="imagelayer"/></g><path class="xlines-below"/><path class="ylines-below"/><g class="overlines-below"/><g class="xaxislayer-below"/><g class="yaxislayer-below"/><g class="overaxes-below"/><g class="overplot"><g class="x2y2" transform="translate(652,100)" clip-path="url(#clip0b33f2x2y2plot)"><g class="scatterlayer mlayer"><g class="trace scatter trace66857c" style="stroke-miterlimit: 2; opacity: 1;"><g class="fills"/><g class="errorbars"/><g class="lines"><path class="js-line" d="M0,54.29L9.36,56.74L14.04,56.74L23.4,59.2L28.08,59.2L32.76,59.2L37.44,60.43L46.8,60.43L51.48,61.66L56.16,61.66L60.84,64.12L79.56,64.12L84.24,65.35L93.6,65.35L98.28,67.81L112.32,71.49L117,71.49L135.72,71.49L140.4,72.72L149.76,72.72L154.44,73.95L159.12,75.18L163.8,75.18L168.48,76.41L173.16,76.41L177.84,80.1L182.52,82.56L196.56,82.56L201.24,83.79L205.92,87.47L210.6,88.7L224.64,88.7L229.32,89.93L234,89.93L238.68,97.31L243.36,103.45L248.04,105.91L252.72,109.6L257.4,112.06L266.76,119.43L271.44,125.58L276.12,129.26L280.8,141.55L285.48,148.93L290.16,153.85L299.52,169.82L304.2,174.74L313.56,191.95L318.24,204.24L322.92,207.93L327.6,217.76L332.28,227.59L336.96,231.28L341.64,236.2L346.32,244.8L351,264.47L355.68,277.99L360.36,284.13L365.04,291.51L369.72,297.65L374.4,305.03L379.08,308.72L383.76,313.63L393.12,323.47L397.8,330.84L402.48,334.53L407.16,340.67L411.84,341.9L416.52,349.28L421.2,354.19L425.88,361.57L430.56,366.48L435.24,367.71L439.92,372.63L444.6,375.09L449.28,376.32L453.96,376.32L458.64,377.55L463.32,380L468,384.92" style="vector-effect: none; fill: none; stroke: rgb(0, 128, 0); stroke-opacity: 1; stroke-width: 3px; opacity: 1;"/></g><g class="points"/><g class="text"/></g><g class="trace scatter trace5c17ee" style="stroke-miterlimit: 2; opacity: 1;"><g class="fills"/><g class="errorbars"/><g class="lines"><path class="js-line" d="M0,351.73L4.68,351.73L9.36,354.19L14.04,356.65L18.72,356.65L23.4,357.88L28.08,357.88L88.92,357.88L93.6,359.11L163.8,359.11L168.48,360.34L177.84,360.34L182.52,361.57L187.2,361.57L191.88,362.8L234,362.8L238.68,364.03L248.04,371.4L252.72,372.63L257.4,375.09L262.08,376.32L271.44,376.32L276.12,378.78L285.48,383.69L290.16,384.92L294.84,384.92L299.52,386.15L304.2,387.38L308.88,387.38L313.56,388.61L318.24,392.3L327.6,392.3L332.28,393.53L336.96,393.53L341.64,394.75L351,397.21L355.68,397.21L374.4,397.21L379.08,398.44L383.76,399.67L388.44,399.67L397.8,399.67L402.48,400.9L468,400.9" style="vector-effect: none; fill: none; stroke: rgb(255, 0, 0); stroke-opacity: 1; stroke-width: 3px; opacity: 1;"/></g><g class="points"/><g class="text"/></g><g class="trace scatter trace15d586" style="stroke-miterlimit: 2; opacity: 1;"><g class="fills"/><g class="errorbars"/><g class="lines"><path class="js-line" d="M0,400.9L4.68,399.67L9.36,395.98L14.04,393.53L18.72,392.3L23.4,389.84L28.08,389.84L32.76,389.84L37.44,388.61L46.8,388.61L51.48,387.38L56.16,387.38L60.84,384.92L79.56,384.92L84.24,383.69L88.92,383.69L93.6,382.46L98.28,380L102.96,378.78L112.32,376.32L117,376.32L135.72,376.32L140.4,375.09L149.76,375.09L154.44,373.86L159.12,372.63L163.8,372.63L168.48,370.17L173.16,370.17L182.52,362.8L187.2,362.8L191.88,361.57L196.56,361.57L201.24,360.34L205.92,356.65L210.6,355.42L215.28,355.42L224.64,355.42L229.32,354.19L234,354.19L238.68,345.59L243.36,335.76L248.04,329.61L262.08,314.86L266.76,311.17L276.12,298.88L280.8,284.13L285.48,274.3L290.16,268.15L299.52,250.95L304.2,244.8L313.56,226.36L318.24,210.39L322.92,206.7L327.6,196.87L332.28,185.8L336.96,182.12L341.64,175.97L346.32,166.14L351,145.24L355.68,131.72L360.36,125.58L365.04,118.2L369.72,112.06L374.4,104.68L379.08,99.76L383.76,93.62L393.12,83.79L397.8,76.41L402.48,71.49L407.16,65.35L411.84,64.12L416.52,56.74L421.2,51.83L425.88,44.45L430.56,39.54L435.24,38.31L439.92,33.39L444.6,30.93L449.28,29.7L453.96,29.7L458.64,28.47L463.32,26.02L468,21.1" style="vector-effect: none; fill: none; stroke: rgb(255, 165, 0); stroke-opacity: 1; stroke-width: 3px; opacity: 1;"/></g><g class="points"/><g class="text"/></g></g></g></g><path class="xlines-above crisp" d="M0,0" style="fill: none;"/><path class="ylines-above crisp" d="M0,0" style="fill: none;"/><g class="overlines-above"/><g class="xaxislayer-above"><g class="x2tick"><text text-anchor="middle" x="0" y="535" transform="translate(652,0)" style="font-family: 'Open Sans', verdana, arial, sans-serif; font-size: 12px; fill: rgb(42, 63, 95); fill-opacity: 1; white-space: pre; opacity: 1;">0</text></g><g class="x2tick"><text text-anchor="middle" x="0" y="535" style="font-family: 'Open Sans', verdana, arial, sans-serif; font-size: 12px; fill: rgb(42, 63, 95); fill-opacity: 1; white-space: pre; opacity: 1;" transform="translate(745.6,0)">0.2</text></g><g class="x2tick"><text text-anchor="middle" x="0" y="535" style="font-family: 'Open Sans', verdana, arial, sans-serif; font-size: 12px; fill: rgb(42, 63, 95); fill-opacity: 1; white-space: pre; opacity: 1;" transform="translate(839.2,0)">0.4</text></g><g class="x2tick"><text text-anchor="middle" x="0" y="535" style="font-family: 'Open Sans', verdana, arial, sans-serif; font-size: 12px; fill: rgb(42, 63, 95); fill-opacity: 1; white-space: pre; opacity: 1;" transform="translate(932.8,0)">0.6</text></g><g class="x2tick"><text text-anchor="middle" x="0" y="535" style="font-family: 'Open Sans', verdana, arial, sans-serif; font-size: 12px; fill: rgb(42, 63, 95); fill-opacity: 1; white-space: pre; opacity: 1;" transform="translate(1026.4,0)">0.8</text></g><g class="x2tick"><text text-anchor="middle" x="0" y="535" style="font-family: 'Open Sans', verdana, arial, sans-serif; font-size: 12px; fill: rgb(42, 63, 95); fill-opacity: 1; white-space: pre; opacity: 1;" transform="translate(1120,0)">1</text></g></g><g class="yaxislayer-above"><g class="y2tick"><text text-anchor="end" x="651" y="4.199999999999999" transform="translate(0,500.9)" style="font-family: 'Open Sans', verdana, arial, sans-serif; font-size: 12px; fill: rgb(42, 63, 95); fill-opacity: 1; white-space: pre; opacity: 1;">0</text></g><g class="y2tick"><text text-anchor="end" x="651" y="4.199999999999999" style="font-family: 'Open Sans', verdana, arial, sans-serif; font-size: 12px; fill: rgb(42, 63, 95); fill-opacity: 1; white-space: pre; opacity: 1;" transform="translate(0,421.74)">20</text></g><g class="y2tick"><text text-anchor="end" x="651" y="4.199999999999999" style="font-family: 'Open Sans', verdana, arial, sans-serif; font-size: 12px; fill: rgb(42, 63, 95); fill-opacity: 1; white-space: pre; opacity: 1;" transform="translate(0,342.59000000000003)">40</text></g><g class="y2tick"><text text-anchor="end" x="651" y="4.199999999999999" style="font-family: 'Open Sans', verdana, arial, sans-serif; font-size: 12px; fill: rgb(42, 63, 95); fill-opacity: 1; white-space: pre; opacity: 1;" transform="translate(0,263.43)">60</text></g><g class="y2tick"><text text-anchor="end" x="651" y="4.199999999999999" style="font-family: 'Open Sans', verdana, arial, sans-serif; font-size: 12px; fill: rgb(42, 63, 95); fill-opacity: 1; white-space: pre; opacity: 1;" transform="translate(0,184.28)">80</text></g><g class="y2tick"><text text-anchor="end" x="651" y="4.199999999999999" style="font-family: 'Open Sans', verdana, arial, sans-serif; font-size: 12px; fill: rgb(42, 63, 95); fill-opacity: 1; white-space: pre; opacity: 1;" transform="translate(0,105.12)">100</text></g></g><g class="overaxes-above"/></g></g><g class="polarlayer"/><g class="smithlayer"/><g class="ternarylayer"/><g class="geolayer"/><g class="funnelarealayer"/><g class="pielayer"/><g class="iciclelayer"/><g class="treemaplayer"/><g class="sunburstlayer"/><g class="glimages"/><defs id="topdefs-0b33f2"><g class="clips"/><clipPath id="legend0b33f2"><rect width="695" height="124" x="0" y="0"/></clipPath></defs><g class="layer-above"><g class="imagelayer"/><g class="shapelayer"/></g><g class="infolayer"><g class="legend" pointer-events="all" transform="translate(252.5,564.2)"><rect class="bg" shape-rendering="crispEdges" style="stroke: rgb(68, 68, 68); stroke-opacity: 1; fill: rgb(255, 255, 255); fill-opacity: 1; stroke-width: 0px;" width="695" height="124" x="0" y="0"/><g class="scrollbox" transform="" clip-path="url(#legend0b33f2)"><g class="groups" transform=""><g class="traces" transform="translate(0,14.5)" style="opacity: 1;"><text class="legendtext" text-anchor="start" x="40" y="4.680000000000001" style="font-family: 'Open Sans', verdana, arial, sans-serif; font-size: 12px; fill: rgb(42, 63, 95); fill-opacity: 1; white-space: pre;">True Positives ("acceptable" document correctly classified)</text><g class="layers"><g class="legendfill"><path class="js-fill" d="M5,-3h30v6h-30z" style="stroke-width: 0; fill: rgb(0, 128, 0); fill-opacity: 0.7;"/></g><g class="legendlines"/><g class="legendsymbols"><g class="legendpoints"/></g></g><rect class="legendtoggle" x="0" y="-9.5" width="481.5" height="19" style="fill: rgb(0, 0, 0); fill-opacity: 0;"/></g><g class="traces" transform="translate(0,33.5)" style="opacity: 1;"><text class="legendtext" text-anchor="start" x="40" y="4.680000000000001" style="font-family: 'Open Sans', verdana, arial, sans-serif; font-size: 12px; fill: rgb(42, 63, 95); fill-opacity: 1; white-space: pre;">False Negatives ("acceptable" document classified as "unacceptable")</text><g class="layers"><g class="legendfill"><path class="js-fill" d="M5,-3h30v6h-30z" style="stroke-width: 0; fill: rgb(255, 0, 0); fill-opacity: 0.7;"/></g><g class="legendlines"/><g class="legendsymbols"><g class="legendpoints"/></g></g><rect class="legendtoggle" x="0" y="-9.5" width="481.5" height="19" style="fill: rgb(0, 0, 0); fill-opacity: 0;"/></g><g class="traces" transform="translate(0,52.5)" style="opacity: 1;"><text class="legendtext" text-anchor="start" x="40" y="4.680000000000001" style="font-family: 'Open Sans', verdana, arial, sans-serif; font-size: 12px; fill: rgb(42, 63, 95); fill-opacity: 1; white-space: pre;">Uncertain Positives ("acceptable" document classified as "uncertain")</text><g class="layers"><g class="legendfill"><path class="js-fill" d="M5,-3h30v6h-30z" style="stroke-width: 0; fill: rgb(0, 255, 0); fill-opacity: 0.5;"/></g><g class="legendlines"/><g class="legendsymbols"><g class="legendpoints"/></g></g><rect class="legendtoggle" x="0" y="-9.5" width="481.5" height="19" style="fill: rgb(0, 0, 0); fill-opacity: 0;"/></g><g class="traces" transform="translate(0,71.5)" style="opacity: 1;"><text class="legendtext" text-anchor="start" x="40" y="4.680000000000001" style="font-family: 'Open Sans', verdana, arial, sans-serif; font-size: 12px; fill: rgb(42, 63, 95); fill-opacity: 1; white-space: pre;">Uncertain Negatives ("unacceptable" document classified as "uncertain")</text><g class="layers"><g class="legendfill"><path class="js-fill" d="M5,-3h30v6h-30z" style="stroke-width: 0; fill: rgb(255, 165, 0); fill-opacity: 0.5;"/></g><g class="legendlines"/><g class="legendsymbols"><g class="legendpoints"/></g></g><rect class="legendtoggle" x="0" y="-9.5" width="481.5" height="19" style="fill: rgb(0, 0, 0); fill-opacity: 0;"/></g><g class="traces" transform="translate(0,90.5)" style="opacity: 1;"><text class="legendtext" text-anchor="start" x="40" y="4.680000000000001" style="font-family: 'Open Sans', verdana, arial, sans-serif; font-size: 12px; fill: rgb(42, 63, 95); fill-opacity: 1; white-space: pre;">False Positives ("unacceptable" document classified as "acceptable")</text><g class="layers"><g class="legendfill"><path class="js-fill" d="M5,-3h30v6h-30z" style="stroke-width: 0; fill: rgb(128, 0, 128); fill-opacity: 0.7;"/></g><g class="legendlines"/><g class="legendsymbols"><g class="legendpoints"/></g></g><rect class="legendtoggle" x="0" y="-9.5" width="481.5" height="19" style="fill: rgb(0, 0, 0); fill-opacity: 0;"/></g><g class="traces" transform="translate(0,109.5)" style="opacity: 1;"><text class="legendtext" text-anchor="start" x="40" y="4.680000000000001" style="font-family: 'Open Sans', verdana, arial, sans-serif; font-size: 12px; fill: rgb(42, 63, 95); fill-opacity: 1; white-space: pre;">True Negatives ("unacceptable" document correctly classified)</text><g class="layers"><g class="legendfill"><path class="js-fill" d="M5,-3h30v6h-30z" style="stroke-width: 0; fill: rgb(0, 0, 255); fill-opacity: 0.7;"/></g><g class="legendlines"/><g class="legendsymbols"><g class="legendpoints"/></g></g><rect class="legendtoggle" x="0" y="-9.5" width="481.5" height="19" style="fill: rgb(0, 0, 0); fill-opacity: 0;"/></g></g><g class="groups" transform="translate(484,0)"><g class="traces" transform="translate(0,14.5)" style="opacity: 1;"><text class="legendtext" text-anchor="start" x="40" y="4.680000000000001" style="font-family: 'Open Sans', verdana, arial, sans-serif; font-size: 12px; fill: rgb(42, 63, 95); fill-opacity: 1; white-space: pre;">Uncertain labeled samples</text><g class="layers" style="opacity: 1;"><g class="legendfill"/><g class="legendlines"><path class="js-line" d="M5,0h30" style="fill: none; stroke: rgb(255, 165, 0); stroke-opacity: 1; stroke-width: 3px;"/></g><g class="legendsymbols"><g class="legendpoints"/></g></g><rect class="legendtoggle" x="0" y="-9.5" width="208.234375" height="19" style="fill: rgb(0, 0, 0); fill-opacity: 0;"/></g><g class="traces" transform="translate(0,33.5)" style="opacity: 1;"><text class="legendtext" text-anchor="start" x="40" y="4.680000000000001" style="font-family: 'Open Sans', verdana, arial, sans-serif; font-size: 12px; fill: rgb(42, 63, 95); fill-opacity: 1; white-space: pre;">Incorrectly labeled samples</text><g class="layers" style="opacity: 1;"><g class="legendfill"/><g class="legendlines"><path class="js-line" d="M5,0h30" style="fill: none; stroke: rgb(255, 0, 0); stroke-opacity: 1; stroke-width: 3px;"/></g><g class="legendsymbols"><g class="legendpoints"/></g></g><rect class="legendtoggle" x="0" y="-9.5" width="208.234375" height="19" style="fill: rgb(0, 0, 0); fill-opacity: 0;"/></g><g class="traces" transform="translate(0,52.5)" style="opacity: 1;"><text class="legendtext" text-anchor="start" x="40" y="4.680000000000001" style="font-family: 'Open Sans', verdana, arial, sans-serif; font-size: 12px; fill: rgb(42, 63, 95); fill-opacity: 1; white-space: pre;">Correctly labeled samples</text><g class="layers" style="opacity: 1;"><g class="legendfill"/><g class="legendlines"><path class="js-line" d="M5,0h30" style="fill: none; stroke: rgb(0, 128, 0); stroke-opacity: 1; stroke-width: 3px;"/></g><g class="legendsymbols"><g class="legendpoints"/></g></g><rect class="legendtoggle" x="0" y="-9.5" width="208.234375" height="19" style="fill: rgb(0, 0, 0); fill-opacity: 0;"/></g></g></g><rect class="scrollbar" rx="20" ry="3" width="0" height="0" style="fill: rgb(128, 139, 164); fill-opacity: 1;" x="0" y="0"/></g><g class="g-gtitle"/><g class="g-xtitle"><text class="xtitle" x="314" y="562.3" text-anchor="middle" style="opacity: 1; font-family: 'Open Sans', verdana, arial, sans-serif; font-size: 14px; fill: rgb(42, 63, 95); fill-opacity: 1; white-space: pre;">Uncertainty Threshold</text></g><g class="g-x2title"><text class="x2title" x="886" y="562.3" text-anchor="middle" style="opacity: 1; font-family: 'Open Sans', verdana, arial, sans-serif; font-size: 14px; fill: rgb(42, 63, 95); fill-opacity: 1; white-space: pre;">Uncertainty Threshold</text></g><g class="g-ytitle"><text class="ytitle" transform="rotate(-90,36.709375,311)" x="36.709375" y="311" text-anchor="middle" style="opacity: 1; font-family: 'Open Sans', verdana, arial, sans-serif; font-size: 14px; fill: rgb(42, 63, 95); fill-opacity: 1; white-space: pre;">Percentage of Training Samples (%)</text></g><g class="g-y2title"><text class="y2title" transform="rotate(-90,608.709375,311)" x="608.709375" y="311" text-anchor="middle" style="opacity: 1; font-family: 'Open Sans', verdana, arial, sans-serif; font-size: 14px; fill: rgb(42, 63, 95); fill-opacity: 1; white-space: pre;">Percentage of Training Samples (%)</text></g><g class="annotation" data-index="0" style="opacity: 1;"><g class="annotation-text-g" transform="rotate(0,314,88.5)"><g class="cursor-pointer" transform="translate(230,77)"><rect class="bg" x="0.5" y="0.5" width="167" height="22" style="stroke-width: 1px; stroke: rgb(0, 0, 0); stroke-opacity: 0; fill: rgb(0, 0, 0); fill-opacity: 0;"/><text class="annotation-text" text-anchor="middle" x="84.1015625" y="18" style="font-family: 'Open Sans', verdana, arial, sans-serif; font-size: 16px; fill: rgb(42, 63, 95); fill-opacity: 1; white-space: pre;">Classification results</text></g></g></g><g class="annotation" data-index="1" style="opacity: 1;"><g class="annotation-text-g" transform="rotate(0,886,88.5)"><g class="cursor-pointer" transform="translate(778,77)"><rect class="bg" x="0.5" y="0.5" width="215" height="22" style="stroke-width: 1px; stroke: rgb(0, 0, 0); stroke-opacity: 0; fill: rgb(0, 0, 0); fill-opacity: 0;"/><text class="annotation-text" text-anchor="middle" x="108.0078125" y="18" style="font-family: 'Open Sans', verdana, arial, sans-serif; font-size: 16px; fill: rgb(42, 63, 95); fill-opacity: 1; white-space: pre;">Classification performance</text></g></g></g></g></svg>
